<?xml version="1.0" encoding="utf-8"?>
<svg version="1.1" xmlns:xlink="http://www.w3.org/1999/xlink" width="10px" height="10px" xmlns="http://www.w3.org/2000/svg">
  <g transform="matrix(1 0 0 1 -27 -368 )">
    <path d="M 32 369  C 34.24 369  36 370.76  36 373  C 36 375.24  34.24 377  32 377  C 29.76 377  28 375.24  28 373  C 28 370.76  29.76 369  32 369  Z " fill-rule="nonzero" fill="#ffffff" stroke="none" />
    <path d="M 32 369  C 34.24 369  36 370.76  36 373  C 36 375.24  34.24 377  32 377  C 29.76 377  28 375.24  28 373  C 28 370.76  29.76 369  32 369  Z " stroke-width="2" stroke="#1890ff" fill="none" />
  </g>
</svg>