<?xml version="1.0" encoding="utf-8"?>
<svg version="1.1" xmlns:xlink="http://www.w3.org/1999/xlink" width="10px" height="10px" xmlns="http://www.w3.org/2000/svg">
  <g transform="matrix(1 0 0 1 -27 -493 )">
    <path d="M 32 494  C 34.24 494  36 495.76  36 498  C 36 500.24  34.24 502  32 502  C 29.76 502  28 500.24  28 498  C 28 495.76  29.76 494  32 494  Z " fill-rule="nonzero" fill="#ffffff" stroke="none" />
    <path d="M 32 494  C 34.24 494  36 495.76  36 498  C 36 500.24  34.24 502  32 502  C 29.76 502  28 500.24  28 498  C 28 495.76  29.76 494  32 494  Z " stroke-width="2" stroke="#d9d9d9" fill="none" />
  </g>
</svg>