<?xml version="1.0" encoding="utf-8"?>
<svg version="1.1" xmlns:xlink="http://www.w3.org/1999/xlink" width="62px" height="32px" xmlns="http://www.w3.org/2000/svg">
  <defs>
    <mask fill="white" id="clip195">
      <path d="M 62 27.4285714285714  L 62 4.57142857142857  C 62 2.01142857142857  60.295 0  58.125 0  L 0 0  L 0 32  L 58.125 32  C 60.295 32  62 29.9885714285714  62 27.4285714285714  Z " fill-rule="evenodd" />
    </mask>
  </defs>
  <g transform="matrix(1 0 0 1 -1311 -231 )">
    <path d="M 62 27.4285714285714  L 62 4.57142857142857  C 62 2.01142857142857  60.295 0  58.125 0  L 0 0  L 0 32  L 58.125 32  C 60.295 32  62 29.9885714285714  62 27.4285714285714  Z " fill-rule="nonzero" fill="#ffffff" stroke="none" transform="matrix(1 0 0 1 1311 231 )" />
    <path d="M 62 27.4285714285714  L 62 4.57142857142857  C 62 2.01142857142857  60.295 0  58.125 0  L 0 0  L 0 32  L 58.125 32  C 60.295 32  62 29.9885714285714  62 27.4285714285714  Z " stroke-width="2" stroke="#d9d9d9" fill="none" transform="matrix(1 0 0 1 1311 231 )" mask="url(#clip195)" />
  </g>
</svg>