<?xml version="1.0" encoding="utf-8"?>
<svg version="1.1" xmlns:xlink="http://www.w3.org/1999/xlink" width="21px" height="24px" xmlns="http://www.w3.org/2000/svg">
  <g transform="matrix(1 0 0 1 -284 -74 )">
    <path d="M 20.9008439559659 23.0369477884615  C 20.9008439559659 23.4347796634615  20.5661477308239 23.7584419471154  20.1547533806818 23.7584419471154  L 1.28686941051136 23.7584419471154  C 0.875475085227273 23.7584419471154  0.540778860085227 23.4347796634615  0.540778860085227 23.0369477884615  L 0.540778860085227 1.22447177884615  C 0.540778860085227 0.826639903846154  0.875475085227273 0.502977620192308  1.28686941051136 0.502977620192308  L 20.1547533806818 0.502977620192308  C 20.5661477059659 0.502977620192308  20.900843931108 0.826639903846154  20.9008439559659 1.22447177884615  L 20.9008439559659 9.53743129807692  C 20.9008439559659 9.80308545673077  20.678160806108 10.0184274038462  20.4034502308239 10.0184274038462  C 20.1287396555398 10.0184274038462  19.9060565305398 9.80308545673077  19.9060565305398 9.53743129807692  L 19.9060565305398 1.46496983173077  L 1.53556626065341 1.46496983173077  L 1.53556626065341 22.7964497355769  L 19.9060565305398 22.7964497355769  L 19.9060565305398 22.7020301923077  C 19.9060565305398 22.4363760336538  20.1287396803977 22.2210340865385  20.4034502308239 22.2210340865385  C 20.67816078125 22.2210340865385  20.900843931108 22.4363760336538  20.9008439559659 22.7020301923077  L 20.9008439559659 23.0369477884615  Z " fill-rule="nonzero" fill="#000000" stroke="none" transform="matrix(1 0 0 1 284 74 )" />
  </g>
</svg>