<?xml version="1.0" encoding="utf-8"?>
<svg version="1.1" xmlns:xlink="http://www.w3.org/1999/xlink" width="8px" height="7px" xmlns="http://www.w3.org/2000/svg">
  <g transform="matrix(1 0 0 1 -299 -86 )">
    <path d="M 7.85282640625 6.2801397421875  C 7.85282640625 6.58232134765625  7.619539296875 6.8272728125  7.33174729166666 6.8272728125  L 0.569156484375 6.8272728125  C 0.281364479166669 6.8272728125  0.0480773697916656 6.58232134765625  0.0480773697916656 6.2801397421875  C 0.0480773697916656 5.9779855078125  0.281364479166667 5.733006671875  0.569156484375 5.733006671875  L 7.33174729166667 5.733006671875  C 7.619539296875 5.733006671875  7.85282640625 5.9779855078125  7.85282640625 6.2801397421875  Z M 5.23026127604167 0.929233019531251  C 5.23026127604167 1.231414625  4.99697416666667 1.47636608984375  4.70918216145833 1.47636608984375  L 2.95827817708333 1.47636608984375  C 2.670486171875 1.47636608984375  2.43719906249999 1.231414625  2.43719906249999 0.929233019531251  C 2.43719906249999 0.627051414062501  2.670486171875 0.38209994921875  2.95827817708333 0.38209994921875  L 4.70918216145833 0.38209994921875  C 4.99697416666667 0.38209994921875  5.23026127604167 0.627051414062501  5.23026127604167 0.929233019531251  Z " fill-rule="nonzero" fill="#000000" stroke="none" transform="matrix(1 0 0 1 299 86 )" />
  </g>
</svg>