<?xml version="1.0" encoding="utf-8"?>
<svg version="1.1" xmlns:xlink="http://www.w3.org/1999/xlink" width="13px" height="12px" xmlns="http://www.w3.org/2000/svg">
  <g transform="matrix(1 0 0 1 -287 -78 )">
    <path d="M 12.5875693173363 0.86685484375  C 12.5875693173363 1.15464684895833  12.3709455729167 1.38793395833333  12.1037101395089 1.38793395833333  L 0.890612371651786 1.38793395833333  C 0.623376938244048 1.38793395833333  0.406753193824406 1.15464684895833  0.406753193824406 0.86685484375  C 0.406753193824406 0.579088906250001  0.623376938244048 0.345775729166668  0.890612371651786 0.345775729166668  L 12.1037101395089 0.345775729166668  C 12.3709455729167 0.345775729166668  12.5875693173363 0.579088906250001  12.5875693173363 0.86685484375  Z M 11.124935593378 6.117117734375  C 11.124935593378 6.40490973958333  10.9083118489583 6.63819684895834  10.6410764155506 6.63819684895834  L 0.890612371651786 6.63819684895834  C 0.623376938244048 6.63819684895834  0.406753193824406 6.40490973958333  0.406753193824406 6.117117734375  C 0.406753193824406 5.82932572916667  0.623376938244048 5.59603861979167  0.890612371651786 5.59603861979167  L 10.6410764155506 5.59603861979167  C 10.9083118489583 5.59603861979167  11.124935593378 5.82932572916667  11.124935593378 6.117117734375  Z M 8.19976494419643 11.3674327604167  C 8.19976494419643 11.655224765625  7.98314119977679 11.888511875  7.71590576636905 11.888511875  L 0.890612371651786 11.888511875  C 0.623376938244048 11.888511875  0.406753193824406 11.655224765625  0.406753193824406 11.3674327604167  C 0.406753193824406 11.0796407552083  0.623376938244048 10.8463536458333  0.890612371651786 10.8463536458333  L 7.71590576636905 10.8463536458333  C 7.98314119977679 10.8463536458333  8.19976494419643 11.0796407552083  8.19976494419643 11.3674327604167  Z " fill-rule="nonzero" fill="#000000" stroke="none" transform="matrix(1 0 0 1 287 78 )" />
  </g>
</svg>