<?xml version="1.0" encoding="utf-8"?>
<svg version="1.1" xmlns:xlink="http://www.w3.org/1999/xlink" width="6px" height="3px" xmlns="http://www.w3.org/2000/svg">
  <g transform="matrix(1 0 0 1 -300 -85 )">
    <path d="M 1.34384674479167 2.08901521875  C 1.34384674479167 2.3480280234375  1.11055963541667 2.557986421875  0.822767630208335 2.557986421875  C 0.534975625000001 2.557986421875  0.301688515625 2.3480280234375  0.301688515625 2.08901521875  L 0.301688515625 0.828326835937501  C 0.301688515625 0.569314031250001  0.534975624999999 0.3593556328125  0.822767630208335 0.3593556328125  C 1.11055963541667 0.3593556328125  1.34384674479167 0.569314031250001  1.34384674479167 0.828326835937501  L 1.34384674479167 2.08901521875  Z M 5.98426471354167 2.08901521875  C 5.98426471354167 2.3480280234375  5.75097760416667 2.557986421875  5.46318559895833 2.557986421875  C 5.17539359375 2.557986421875  4.942106484375 2.3480280234375  4.942106484375 2.08901521875  L 4.942106484375 0.828326835937501  C 4.942106484375 0.569314031250001  5.17539359375 0.3593556328125  5.46318559895833 0.3593556328125  C 5.75097760416667 0.3593556328125  5.98426471354167 0.569314031250001  5.98426471354167 0.828326835937501  L 5.98426471354167 2.08901521875  Z " fill-rule="nonzero" fill="#000000" stroke="none" transform="matrix(1 0 0 1 300 85 )" />
  </g>
</svg>