<?xml version="1.0" encoding="utf-8"?>
<svg version="1.1" xmlns:xlink="http://www.w3.org/1999/xlink" width="13px" height="11px" xmlns="http://www.w3.org/2000/svg">
  <g transform="matrix(1 0 0 1 -297 -86 )">
    <path d="M 12.4984128242188 9.83751663832721  C 12.4984128242188 10.1759667210478  12.2127604980469 10.4410825689338  11.8481314960937 10.4410825942096  L 1.05535129882813 10.4410825942096  C 0.690671464843749 10.4410825942096  0.404993748046874 10.1759667463235  0.404993773437501 9.83751663832721  L 0.404993773437501 0.964429751838235  C 0.404993773437501 0.625929092371323  0.690646099609378 0.360813244485293  1.05535129882813 0.360813219209559  L 2.87143446484375 0.360813219209559  C 3.15203166992188 0.360813219209559  3.3794866015625 0.587238943014707  3.3794866015625 0.866566477481616  C 3.3794866015625 1.1458687109375  3.15203166992188 1.37231973575368  2.87143446484375 1.37231973575368  L 1.421098046875 1.37231973575368  L 1.421098046875 9.42957607766544  L 11.4823085507813 9.42957607766544  L 11.4823085507813 1.37231973575368  L 9.74842821875 1.37231973575368  C 9.46783101367187 1.37231973575368  9.24037608203125 1.1458687109375  9.24037608203125 0.866566477481619  C 9.24037608203125 0.587238943014707  9.46783101367187 0.360813219209561  9.74842821875 0.360813219209561  L 11.8481060800781 0.360813219209561  C 12.2127351074219 0.360813219209561  12.4984128242188 0.625929067095591  12.4984128242188 0.964429751838237  L 12.4984128242188 9.83751663832721  Z " fill-rule="nonzero" fill="#000000" stroke="none" transform="matrix(1 0 0 1 297 86 )" />
  </g>
</svg>