<?xml version="1.0" encoding="utf-8"?>
<svg version="1.1" xmlns:xlink="http://www.w3.org/1999/xlink" width="60px" height="32px" xmlns="http://www.w3.org/2000/svg">
  <defs>
    <mask fill="white" id="clip68">
      <path d="M 0 28  L 0 4  C 0 1.76  1.76000000000001 0  4 0  L 26.2777777777778 0  L 56 0  C 58.24 0  60 1.76  60 4  L 60 28  C 60 30.24  58.24 32  56 32  L 4 32  C 1.76000000000001 32  0 30.24  0 28  Z " fill-rule="evenodd" />
    </mask>
  </defs>
  <g transform="matrix(1 0 0 1 -126 -17 )">
    <path d="M 0 28  L 0 4  C 0 1.76  1.76000000000001 0  4 0  L 26.2777777777778 0  L 56 0  C 58.24 0  60 1.76  60 4  L 60 28  C 60 30.24  58.24 32  56 32  L 4 32  C 1.76000000000001 32  0 30.24  0 28  Z " fill-rule="nonzero" fill="#ffffff" stroke="none" transform="matrix(1 0 0 1 126 17 )" />
    <path d="M 0 28  L 0 4  C 0 1.76  1.76000000000001 0  4 0  L 26.2777777777778 0  L 56 0  C 58.24 0  60 1.76  60 4  L 60 28  C 60 30.24  58.24 32  56 32  L 4 32  C 1.76000000000001 32  0 30.24  0 28  Z " stroke-width="2" stroke="#d9d9d9" fill="none" transform="matrix(1 0 0 1 126 17 )" mask="url(#clip68)" />
  </g>
</svg>