<?xml version="1.0" encoding="utf-8"?>
<svg version="1.1" xmlns:xlink="http://www.w3.org/1999/xlink" width="88px" height="32px" xmlns="http://www.w3.org/2000/svg">
  <defs>
    <mask fill="white" id="clip198">
      <path d="M 88 27.4285714285714  L 88 4.57142857142857  C 88 2.01142857142857  85.58 0  82.5 0  L 0 0  L 0 32  L 82.5 32  C 85.58 32  88 29.9885714285714  88 27.4285714285714  Z " fill-rule="evenodd" />
    </mask>
  </defs>
  <g transform="matrix(1 0 0 1 -157 0 )">
    <path d="M 88 27.4285714285714  L 88 4.57142857142857  C 88 2.01142857142857  85.58 0  82.5 0  L 0 0  L 0 32  L 82.5 32  C 85.58 32  88 29.9885714285714  88 27.4285714285714  Z " fill-rule="nonzero" fill="#ffffff" stroke="none" transform="matrix(1 0 0 1 157 0 )" />
    <path d="M 88 27.4285714285714  L 88 4.57142857142857  C 88 2.01142857142857  85.58 0  82.5 0  L 0 0  L 0 32  L 82.5 32  C 85.58 32  88 29.9885714285714  88 27.4285714285714  Z " stroke-width="2" stroke="#49a7fd" fill="none" transform="matrix(1 0 0 1 157 0 )" mask="url(#clip198)" />
  </g>
</svg>