<svg t="1595472794670" class="icon" viewBox="0 0 1024 1024" version="1.1" xmlns="http://www.w3.org/2000/svg" p-id="2770" width="200" height="200"><path d="M895.939096 710.48312H636.255609c-11.051213 0-20.009438-8.958225-20.009438-20.009438 0-11.050212 8.958225-20.009438 20.009438-20.009438h259.683487c11.051213 0 20.009438 8.959226 20.009438 20.009438 0 11.051213-8.958225 20.009438-20.009438 20.009438zM795.232595 514.792817h-67.234713c-11.051213 0-20.009438-8.958225-20.009438-20.009438s8.958225-20.009438 20.009438-20.009438h67.234713c11.051213 0 20.009438 8.958225 20.009438 20.009438s-8.958225 20.009438-20.009438 20.009438z" p-id="2771" fill="#ffffff"></path><path d="M978.634102 873.887195H553.564605c-14.362775 0-25.614082-10.488947-25.614081-23.879264V498.956348c0-13.392317 11.250307-23.881264 25.614081-23.881265h71.525737c11.051213 0 20.009438 8.958225 20.009438 20.009438 0 11.050212-8.958225 20.009438-20.009438 20.009438h-57.120942v318.77436h396.256906V515.093959h-68.28821c-11.051213 0-20.009438-8.959226-20.009438-20.009438 0-11.051213 8.958225-20.009438 20.009438-20.009438h82.695005c14.360774 0 25.612081 10.488947 25.612081 23.881265v351.051583c0 13.390316-11.250307 23.879263-25.61108 23.879264z" p-id="2772" fill="#ffffff"></path><path d="M671.594277 544.340754c-11.051213 0-20.009438-8.958225-20.009438-20.009438V470.541945c0-11.051213 8.958225-20.009438 20.009438-20.009438s20.009438 8.958225 20.009438 20.009438v53.789371c0 11.051213-8.958225 20.009438-20.009438 20.009438zM849.786327 544.340754c-11.051213 0-20.009438-8.958225-20.009438-20.009438V470.541945c0-11.051213 8.958225-20.009438 20.009438-20.009438s20.009438 8.958225 20.009438 20.009438v53.789371c0 11.051213-8.958225 20.009438-20.009438 20.009438z" p-id="2773" fill="#ffffff"></path><path d="M810.796936 988.351185H51.768918c-16.549806 0-30.014157-13.464351-30.014157-30.014157V50.938026c0-16.549806 13.464351-30.014157 30.014157-30.014157h759.028018c16.549806 0 30.014157 13.464351 30.014158 30.014157V396.757142c0 11.051213-8.958225 20.009438-20.009439 20.009438s-20.009438-8.958225-20.009438-20.009438V60.942745H61.773637v887.389564h739.01858v-3.927853c0-11.051213 8.958225-20.009438 20.009438-20.009438s20.009438 8.958225 20.009439 20.009438v13.932572c0 16.549806-13.464351 30.014157-30.014158 30.014157z" p-id="2774" fill="#ffffff"></path><path d="M628.534967 232.496664H164.830247c-11.051213 0-20.009438-8.958225-20.009438-20.009438 0-11.050212 8.958225-20.009438 20.009438-20.009438H628.534967c11.051213 0 20.009438 8.959226 20.009438 20.009438 0 11.051213-8.958225 20.009438-20.009438 20.009438zM568.049437 434.106759H164.830247c-11.051213 0-20.009438-8.958225-20.009438-20.009438s8.958225-20.009438 20.009438-20.009438h403.21919c11.051213 0 20.009438 8.958225 20.009438 20.009438s-8.958225 20.009438-20.009438 20.009438zM447.08238 635.718856H164.830247c-11.051213 0-20.009438-8.958225-20.009438-20.009438s8.958225-20.009438 20.009438-20.009438h282.252133c11.051213 0 20.009438 8.958225 20.009438 20.009438s-8.958225 20.009438-20.009438 20.009438z" p-id="2775" fill="#ffffff"></path><path d="M628.534967 232.496664H164.830247c-11.051213 0-20.009438-8.958225-20.009438-20.009438 0-11.050212 8.958225-20.009438 20.009438-20.009438H628.534967c11.051213 0 20.009438 8.959226 20.009438 20.009438 0 11.051213-8.958225 20.009438-20.009438 20.009438zM568.049437 434.106759H164.830247c-11.051213 0-20.009438-8.958225-20.009438-20.009438s8.958225-20.009438 20.009438-20.009438h403.21919c11.051213 0 20.009438 8.958225 20.009438 20.009438s-8.958225 20.009438-20.009438 20.009438zM447.08238 635.718856H164.830247c-11.051213 0-20.009438-8.958225-20.009438-20.009438s8.958225-20.009438 20.009438-20.009438h282.252133c11.051213 0 20.009438 8.958225 20.009438 20.009438s-8.958225 20.009438-20.009438 20.009438z" p-id="2776" fill="#ffffff"></path></svg>